<svg width="1400" height="788" viewBox="0 0 1400 788" fill="none" xmlns="http://www.w3.org/2000/svg">
  <rect width="1400" height="788" fill="#020617"/>
  <circle cx="260" cy="120" r="260" fill="#22D3EE" fill-opacity="0.22"/>
  <circle cx="1160" cy="180" r="300" fill="#8B5CF6" fill-opacity="0.24"/>
  <circle cx="720" cy="720" r="260" fill="#10B981" fill-opacity="0.18"/>
  <path d="M150 508C230 378 330 316 450 322C600 330 650 466 786 446C922 426 954 286 1112 278C1210 273 1284 322 1330 424" stroke="url(#paint0_linear)" stroke-width="8" stroke-linecap="round"/>
  <rect x="194" y="210" width="348" height="260" rx="36" fill="white" fill-opacity="0.08" stroke="white" stroke-opacity="0.16"/>
  <rect x="858" y="238" width="348" height="260" rx="36" fill="white" fill-opacity="0.08" stroke="white" stroke-opacity="0.16"/>
  <rect x="594" y="156" width="212" height="212" rx="48" fill="url(#paint1_linear)"/>
  <path d="M642 258H758M642 302H724" stroke="white" stroke-width="18" stroke-linecap="round"/>
  <circle cx="1032" cy="368" r="62" fill="#10B981"/>
  <path d="M1000 369L1022 391L1066 337" stroke="white" stroke-width="16" stroke-linecap="round" stroke-linejoin="round"/>
  <circle cx="366" cy="340" r="62" fill="#22D3EE"/>
  <path d="M338 340H394M366 312V368" stroke="#020617" stroke-width="16" stroke-linecap="round"/>
  <text x="700" y="594" text-anchor="middle" fill="white" font-family="Inter, Arial, sans-serif" font-size="62" font-weight="800">Livestream Master Blog</text>
  <text x="700" y="650" text-anchor="middle" fill="#A7F3D0" font-family="Inter, Arial, sans-serif" font-size="24" font-weight="700" letter-spacing="6">GOOGLE SHEETS • MAKE AI • APPS SCRIPT</text>
  <defs>
    <linearGradient id="paint0_linear" x1="150" y1="392" x2="1330" y2="392" gradientUnits="userSpaceOnUse">
      <stop stop-color="#22D3EE"/>
      <stop offset="0.5" stop-color="#8B5CF6"/>
      <stop offset="1" stop-color="#10B981"/>
    </linearGradient>
    <linearGradient id="paint1_linear" x1="594" y1="156" x2="806" y2="368" gradientUnits="userSpaceOnUse">
      <stop stop-color="#22D3EE"/>
      <stop offset="1" stop-color="#8B5CF6"/>
    </linearGradient>
  </defs>
</svg>
